<svg width="20" height="20" viewBox="0 0 20 20" fill="none" xmlns="http://www.w3.org/2000/svg" class="ml-10">
	            <path d="M8.75008 1.25V2.58333M3.00008 8.33333H1.66675M4.54275 4.12614L3.59993 3.18333M12.9583 4.12614L13.9011 3.18333M15.8334 8.33333H14.5001M5.41681 8.3334C5.41681 6.49245 6.90919 5.00006 8.75014 5.00006C10.0052 5.00006 11.0982 5.69363 11.6668 6.71838M5.00008 18.3333C3.15913 18.3333 1.66675 16.8409 1.66675 15C1.66675 13.1591 3.15913 11.6667 5.00008 11.6667C5.3869 11.6667 5.75834 11.7326 6.10377 11.8537C6.70059 10.283 8.21997 9.16667 10.0001 9.16667C11.7802 9.16667 13.2996 10.283 13.8964 11.8537C14.2418 11.7326 14.6133 11.6667 15.0001 11.6667C16.841 11.6667 18.3334 13.1591 18.3334 15C18.3334 16.8409 16.841 18.3333 15.0001 18.3333C11.1332 18.3333 8.23275 18.3333 5.00008 18.3333Z" stroke="#667085" stroke-width="1.66667" stroke-linecap="round" stroke-linejoin="round"></path>
	          </svg>