<svg width="18" height="23" viewBox="0 0 18 23" fill="none" xmlns="http://www.w3.org/2000/svg">
	                  <path d="M8.21452 17.0832C6.32983 16.394 3.49248 16.4423 1.88768 18.1308C-0.459695 20.6005 2.06706 24.2879 5.71142 20.6453C6.73012 19.6276 7.45514 18.4065 8.21452 17.0832ZM13.2507 9.69397C12.7691 10.5056 13.0825 9.96688 12.6242 10.7943C15.2391 11.748 16.0199 13.4163 14.798 15.531C14.3806 16.2539 13.9269 15.823 13.9684 15.3332C14.028 14.6306 13.1522 13.7259 11.4045 13.0191C10.7176 14.2728 10.8509 14.0633 10.1536 15.3108C11.5244 15.8085 12.8259 16.4934 14.0243 17.3475C16.3768 15.2105 18.2753 11.9601 13.2507 9.69364V9.69397ZM15.7185 1.2574C16.2561 0.98784 16.3154 1.35965 16.1347 1.81238C15.6161 3.11152 13.5752 4.39281 13.2487 3.95235C12.6044 3.08518 11.6993 2.17246 10.6371 1.65901C9.46655 1.09243 8.12793 1.02546 7.38868 2.0412C6.65574 3.04723 7.4575 4.21779 8.80992 4.96698C9.61682 5.41469 12.1778 6.4763 13.9382 7.14133C15.0126 5.3697 15.6701 4.46246 16.8909 3.09377C17.2139 2.73212 17.7487 3.23821 17.4255 3.60042C16.2702 4.89521 15.6473 5.73425 14.6176 7.42161C21.119 10.3722 16.9586 16.5321 12.8745 19.5074C12.8056 19.5574 12.7223 19.5813 12.6386 19.5751C12.5548 19.5689 12.4756 19.5329 12.4143 19.4731C11.4688 18.5452 10.1709 17.779 8.93365 17.2983C8.1214 18.7227 7.40816 20.0623 6.33947 21.1627C2.06342 25.5652 -2.08184 21.1885 1.15923 17.1123C2.80856 15.0381 6.2364 14.1343 9.44996 15.0711C10.1472 13.8287 10.012 14.0417 10.6963 12.7913C7.54012 11.6517 4.03148 9.92156 4.52831 6.23532C4.63845 5.41748 5.24081 5.45007 5.36603 6.1237C5.73999 8.1362 9.30761 9.65156 11.9162 10.5638C12.377 9.72913 12.0661 10.2599 12.5516 9.43814C10.3132 8.48044 6.9688 7.47843 5.938 4.96999C4.91897 2.49069 6.82356 0.683118 8.6391 0.164755C10.3119 -0.313313 12.6773 0.309079 14.2951 1.25941C14.8928 1.6109 15.311 1.46156 15.7185 1.25707V1.2574Z" fill="#161616"></path>
	                </svg>